<?xml version="1.0" encoding="UTF-8" standalone="no"?>
<!DOCTYPE svg PUBLIC "-//W3C//DTD SVG 1.1//EN"
 "http://www.w3.org/Graphics/SVG/1.1/DTD/svg11.dtd">
<!-- Generated by graphviz version 2.40.1 (20161225.0304)
 -->
<!-- Title: controllers_diagram Pages: 1 -->
<svg width="369pt" height="339pt"
 viewBox="0.00 0.00 368.54 339.00" xmlns="http://www.w3.org/2000/svg" xmlns:xlink="http://www.w3.org/1999/xlink">
<g id="graph0" class="graph" transform="scale(1 1) rotate(0) translate(4 335)">
<title>controllers_diagram</title>
<polygon fill="transparent" stroke="transparent" points="-4,4 -4,-335 364.5449,-335 364.5449,4 -4,4"/>
<!-- _diagram_info -->
<g id="node1" class="node">
<title>_diagram_info</title>
<text text-anchor="start" x="8" y="-142.6" font-family="Times,serif" font-size="13.00" fill="#000000">Controllers diagram</text>
<text text-anchor="start" x="8" y="-129.6" font-family="Times,serif" font-size="13.00" fill="#000000">Date: Mar 06 2018 &#45; 12:23</text>
<text text-anchor="start" x="8" y="-116.6" font-family="Times,serif" font-size="13.00" fill="#000000">Migration version: 20180306151012</text>
<text text-anchor="start" x="8" y="-103.6" font-family="Times,serif" font-size="13.00" fill="#000000">Generated by RailRoady 1.5.3</text>
<text text-anchor="start" x="8" y="-90.6" font-family="Times,serif" font-size="13.00" fill="#000000">http://railroady.prestonlee.com</text>
</g>
<!-- ApplicationController -->
<g id="node2" class="node">
<title>ApplicationController</title>
<path fill="none" stroke="#000000" d="M12,-238.5C12,-238.5 127.6416,-238.5 127.6416,-238.5 133.6416,-238.5 139.6416,-244.5 139.6416,-250.5 139.6416,-250.5 139.6416,-318.5 139.6416,-318.5 139.6416,-324.5 133.6416,-330.5 127.6416,-330.5 127.6416,-330.5 12,-330.5 12,-330.5 6,-330.5 0,-324.5 0,-318.5 0,-318.5 0,-250.5 0,-250.5 0,-244.5 6,-238.5 12,-238.5"/>
<text text-anchor="middle" x="69.8208" y="-315.3" font-family="Times,serif" font-size="14.00" fill="#000000">ApplicationController</text>
<polyline fill="none" stroke="#000000" points="0,-308.5 139.6416,-308.5 "/>
<polyline fill="none" stroke="#000000" points="0,-284.5 139.6416,-284.5 "/>
<polyline fill="none" stroke="#000000" points="0,-260.5 139.6416,-260.5 "/>
<text text-anchor="start" x="8" y="-245.3" font-family="Times,serif" font-size="14.00" fill="#000000">_layout</text>
</g>
<!-- OrdersController -->
<g id="node3" class="node">
<title>OrdersController</title>
<path fill="none" stroke="#000000" d="M180,-182.5C180,-182.5 267.6416,-182.5 267.6416,-182.5 273.6416,-182.5 279.6416,-188.5 279.6416,-194.5 279.6416,-194.5 279.6416,-302.5 279.6416,-302.5 279.6416,-308.5 273.6416,-314.5 267.6416,-314.5 267.6416,-314.5 180,-314.5 180,-314.5 174,-314.5 168,-308.5 168,-302.5 168,-302.5 168,-194.5 168,-194.5 168,-188.5 174,-182.5 180,-182.5"/>
<text text-anchor="middle" x="223.8208" y="-299.3" font-family="Times,serif" font-size="14.00" fill="#000000">OrdersController</text>
<polyline fill="none" stroke="#000000" points="168,-292.5 279.6416,-292.5 "/>
<text text-anchor="start" x="176" y="-277.3" font-family="Times,serif" font-size="14.00" fill="#000000">create</text>
<text text-anchor="start" x="176" y="-263.3" font-family="Times,serif" font-size="14.00" fill="#000000">destroy</text>
<text text-anchor="start" x="176" y="-249.3" font-family="Times,serif" font-size="14.00" fill="#000000">empty_cart</text>
<text text-anchor="start" x="176" y="-235.3" font-family="Times,serif" font-size="14.00" fill="#000000">index</text>
<polyline fill="none" stroke="#000000" points="168,-228.5 279.6416,-228.5 "/>
<polyline fill="none" stroke="#000000" points="168,-204.5 279.6416,-204.5 "/>
<text text-anchor="start" x="176" y="-189.3" font-family="Times,serif" font-size="14.00" fill="#000000">_layout</text>
</g>
<!-- ProductsController -->
<g id="node4" class="node">
<title>ProductsController</title>
<path fill="none" stroke="#000000" d="M250,-.5C250,-.5 348.5449,-.5 348.5449,-.5 354.5449,-.5 360.5449,-6.5 360.5449,-12.5 360.5449,-12.5 360.5449,-78.5 360.5449,-78.5 360.5449,-84.5 354.5449,-90.5 348.5449,-90.5 348.5449,-90.5 250,-90.5 250,-90.5 244,-90.5 238,-84.5 238,-78.5 238,-78.5 238,-12.5 238,-12.5 238,-6.5 244,-.5 250,-.5"/>
<text text-anchor="middle" x="299.2725" y="-75.3" font-family="Times,serif" font-size="14.00" fill="#000000">ProductsController</text>
<polyline fill="none" stroke="#000000" points="238,-68.5 360.5449,-68.5 "/>
<text text-anchor="start" x="246" y="-53.3" font-family="Times,serif" font-size="14.00" fill="#000000">index</text>
<polyline fill="none" stroke="#000000" points="238,-46.5 360.5449,-46.5 "/>
<polyline fill="none" stroke="#000000" points="238,-22.5 360.5449,-22.5 "/>
<text text-anchor="start" x="246" y="-7.3" font-family="Times,serif" font-size="14.00" fill="#000000">_layout</text>
</g>
</g>
</svg>
