<?xml version="1.0" encoding="UTF-8" standalone="no"?>
<!DOCTYPE svg PUBLIC "-//W3C//DTD SVG 1.1//EN"
 "http://www.w3.org/Graphics/SVG/1.1/DTD/svg11.dtd">
<!-- Generated by graphviz version 2.40.1 (20161225.0304)
 -->
<!-- Title: models_diagram Pages: 1 -->
<svg width="654pt" height="551pt"
 viewBox="0.00 0.00 654.08 551.00" xmlns="http://www.w3.org/2000/svg" xmlns:xlink="http://www.w3.org/1999/xlink">
<g id="graph0" class="graph" transform="scale(1 1) rotate(0) translate(4 547)">
<title>models_diagram</title>
<polygon fill="transparent" stroke="transparent" points="-4,4 -4,-547 650.0835,-547 650.0835,4 -4,4"/>
<!-- _diagram_info -->
<g id="node1" class="node">
<title>_diagram_info</title>
<text text-anchor="start" x="8" y="-507.6" font-family="Times,serif" font-size="13.00" fill="#000000">Models diagram</text>
<text text-anchor="start" x="8" y="-494.6" font-family="Times,serif" font-size="13.00" fill="#000000">Date: Mar 02 2018 &#45; 16:10</text>
<text text-anchor="start" x="8" y="-481.6" font-family="Times,serif" font-size="13.00" fill="#000000">Migration version: 20180302174647</text>
<text text-anchor="start" x="8" y="-468.6" font-family="Times,serif" font-size="13.00" fill="#000000">Generated by RailRoady 1.5.3</text>
<text text-anchor="start" x="8" y="-455.6" font-family="Times,serif" font-size="13.00" fill="#000000">http://railroady.prestonlee.com</text>
</g>
<!-- Product -->
<g id="node2" class="node">
<title>Product</title>
<path fill="none" stroke="#000000" d="M237.8254,-428.5C237.8254,-428.5 461.55,-428.5 461.55,-428.5 467.55,-428.5 473.55,-434.5 473.55,-440.5 473.55,-440.5 473.55,-530.5 473.55,-530.5 473.55,-536.5 467.55,-542.5 461.55,-542.5 461.55,-542.5 237.8254,-542.5 237.8254,-542.5 231.8254,-542.5 225.8254,-536.5 225.8254,-530.5 225.8254,-530.5 225.8254,-440.5 225.8254,-440.5 225.8254,-434.5 231.8254,-428.5 237.8254,-428.5"/>
<text text-anchor="middle" x="349.6877" y="-527.3" font-family="Times,serif" font-size="14.00" fill="#000000">Product</text>
<polyline fill="none" stroke="#000000" points="225.8254,-520.5 473.55,-520.5 "/>
<text text-anchor="start" x="233.8254" y="-505.3" font-family="Times,serif" font-size="14.00" fill="#000000">id :bigint</text>
<text text-anchor="start" x="233.8254" y="-491.3" font-family="Times,serif" font-size="14.00" fill="#000000">name :character varying</text>
<text text-anchor="start" x="233.8254" y="-477.3" font-family="Times,serif" font-size="14.00" fill="#000000">photo :character varying</text>
<text text-anchor="start" x="233.8254" y="-463.3" font-family="Times,serif" font-size="14.00" fill="#000000">price :integer</text>
<text text-anchor="start" x="233.8254" y="-449.3" font-family="Times,serif" font-size="14.00" fill="#000000">created_at :timestamp without time zone</text>
<text text-anchor="start" x="233.8254" y="-435.3" font-family="Times,serif" font-size="14.00" fill="#000000">updated_at :timestamp without time zone</text>
</g>
<!-- Order -->
<g id="node3" class="node">
<title>Order</title>
<path fill="none" stroke="#000000" d="M237.8254,-.5C237.8254,-.5 461.55,-.5 461.55,-.5 467.55,-.5 473.55,-6.5 473.55,-12.5 473.55,-12.5 473.55,-116.5 473.55,-116.5 473.55,-122.5 467.55,-128.5 461.55,-128.5 461.55,-128.5 237.8254,-128.5 237.8254,-128.5 231.8254,-128.5 225.8254,-122.5 225.8254,-116.5 225.8254,-116.5 225.8254,-12.5 225.8254,-12.5 225.8254,-6.5 231.8254,-.5 237.8254,-.5"/>
<text text-anchor="middle" x="349.6877" y="-113.3" font-family="Times,serif" font-size="14.00" fill="#000000">Order</text>
<polyline fill="none" stroke="#000000" points="225.8254,-106.5 473.55,-106.5 "/>
<text text-anchor="start" x="233.8254" y="-91.3" font-family="Times,serif" font-size="14.00" fill="#000000">id :bigint</text>
<text text-anchor="start" x="233.8254" y="-77.3" font-family="Times,serif" font-size="14.00" fill="#000000">payed :boolean</text>
<text text-anchor="start" x="233.8254" y="-63.3" font-family="Times,serif" font-size="14.00" fill="#000000">user_id :bigint</text>
<text text-anchor="start" x="233.8254" y="-49.3" font-family="Times,serif" font-size="14.00" fill="#000000">product_id :bigint</text>
<text text-anchor="start" x="233.8254" y="-35.3" font-family="Times,serif" font-size="14.00" fill="#000000">created_at :timestamp without time zone</text>
<text text-anchor="start" x="233.8254" y="-21.3" font-family="Times,serif" font-size="14.00" fill="#000000">updated_at :timestamp without time zone</text>
<text text-anchor="start" x="233.8254" y="-7.3" font-family="Times,serif" font-size="14.00" fill="#000000">quantity :integer</text>
</g>
<!-- Product&#45;&gt;Order -->
<g id="edge1" class="edge">
<title>Product&#45;&gt;Order</title>
<path fill="none" stroke="#852914" d="M289.6566,-421.6178C283.5627,-412.2441 278.2973,-402.2685 274.6877,-392 241.2308,-296.8202 242.8984,-260.7497 274.6877,-165 277.8261,-155.5472 282.2381,-146.2633 287.3682,-137.3898"/>
<ellipse fill="none" stroke="#852914" cx="291.9773" cy="-425.0262" rx="4" ry="4"/>
<polygon fill="#852914" stroke="#852914" points="287.4917,-137.1883 296.5539,-131.0136 290.1044,-132.9252 292.7172,-128.6621 292.7172,-128.6621 292.7172,-128.6621 290.1044,-132.9252 288.8804,-126.3107 287.4917,-137.1883 287.4917,-137.1883"/>
</g>
<!-- User -->
<g id="node5" class="node">
<title>User</title>
<path fill="none" stroke="#000000" d="M296.053,-165.5C296.053,-165.5 591.3225,-165.5 591.3225,-165.5 597.3225,-165.5 603.3225,-171.5 603.3225,-177.5 603.3225,-177.5 603.3225,-379.5 603.3225,-379.5 603.3225,-385.5 597.3225,-391.5 591.3225,-391.5 591.3225,-391.5 296.053,-391.5 296.053,-391.5 290.053,-391.5 284.053,-385.5 284.053,-379.5 284.053,-379.5 284.053,-177.5 284.053,-177.5 284.053,-171.5 290.053,-165.5 296.053,-165.5"/>
<text text-anchor="middle" x="443.6877" y="-376.3" font-family="Times,serif" font-size="14.00" fill="#000000">User</text>
<polyline fill="none" stroke="#000000" points="284.053,-369.5 603.3225,-369.5 "/>
<text text-anchor="start" x="292.053" y="-354.3" font-family="Times,serif" font-size="14.00" fill="#000000">updated_at :timestamp without time zone</text>
<text text-anchor="start" x="292.053" y="-340.3" font-family="Times,serif" font-size="14.00" fill="#000000">email :character varying</text>
<text text-anchor="start" x="292.053" y="-326.3" font-family="Times,serif" font-size="14.00" fill="#000000">encrypted_password :character varying</text>
<text text-anchor="start" x="292.053" y="-312.3" font-family="Times,serif" font-size="14.00" fill="#000000">reset_password_token :character varying</text>
<text text-anchor="start" x="292.053" y="-298.3" font-family="Times,serif" font-size="14.00" fill="#000000">reset_password_sent_at :timestamp without time zone</text>
<text text-anchor="start" x="292.053" y="-284.3" font-family="Times,serif" font-size="14.00" fill="#000000">remember_created_at :timestamp without time zone</text>
<text text-anchor="start" x="292.053" y="-270.3" font-family="Times,serif" font-size="14.00" fill="#000000">sign_in_count :integer</text>
<text text-anchor="start" x="292.053" y="-256.3" font-family="Times,serif" font-size="14.00" fill="#000000">current_sign_in_at :timestamp without time zone</text>
<text text-anchor="start" x="292.053" y="-242.3" font-family="Times,serif" font-size="14.00" fill="#000000">last_sign_in_at :timestamp without time zone</text>
<text text-anchor="start" x="292.053" y="-228.3" font-family="Times,serif" font-size="14.00" fill="#000000">current_sign_in_ip :inet</text>
<text text-anchor="start" x="292.053" y="-214.3" font-family="Times,serif" font-size="14.00" fill="#000000">last_sign_in_ip :inet</text>
<text text-anchor="start" x="292.053" y="-200.3" font-family="Times,serif" font-size="14.00" fill="#000000">name :character varying</text>
<text text-anchor="start" x="292.053" y="-186.3" font-family="Times,serif" font-size="14.00" fill="#000000">created_at :timestamp without time zone</text>
<text text-anchor="start" x="292.053" y="-172.3" font-family="Times,serif" font-size="14.00" fill="#000000">id :bigint</text>
</g>
<!-- Product&#45;&gt;User -->
<g id="edge2" class="edge">
<title>Product&#45;&gt;User</title>
<path fill="none" stroke="#d177d5" d="M379.8656,-419.0445C382.4798,-413.2878 385.1739,-407.3549 387.9092,-401.3314"/>
<polygon fill="#d177d5" stroke="#d177d5" points="379.7573,-419.2832 371.5252,-426.5277 377.6899,-423.8358 375.6225,-428.3884 375.6225,-428.3884 375.6225,-428.3884 377.6899,-423.8358 379.7198,-430.249 379.7573,-419.2832 379.7573,-419.2832"/>
<polygon fill="#d177d5" stroke="#d177d5" points="388.101,-400.9089 396.3331,-393.6644 390.1684,-396.3563 392.2358,-391.8037 392.2358,-391.8037 392.2358,-391.8037 390.1684,-396.3563 388.1385,-389.9431 388.101,-400.9089 388.101,-400.9089"/>
</g>
<!-- ApplicationRecord -->
<g id="node4" class="node">
<title>ApplicationRecord</title>
<ellipse fill="none" stroke="#000000" cx="568.6877" cy="-485.5" rx="77.2916" ry="18"/>
<text text-anchor="middle" x="568.6877" y="-481.3" font-family="Times,serif" font-size="14.00" fill="#000000">ApplicationRecord</text>
</g>
<!-- User&#45;&gt;Order -->
<g id="edge3" class="edge">
<title>User&#45;&gt;Order</title>
<path fill="none" stroke="#5d1184" d="M390.7178,-157.9089C387.7586,-151.1719 384.8315,-144.508 381.9844,-138.0264"/>
<ellipse fill="none" stroke="#5d1184" cx="392.3265" cy="-161.5714" rx="4" ry="4"/>
<polygon fill="#5d1184" stroke="#5d1184" points="381.8976,-137.8287 381.996,-126.8633 379.8868,-133.2509 377.8759,-128.6731 377.8759,-128.6731 377.8759,-128.6731 379.8868,-133.2509 373.7559,-130.4828 381.8976,-137.8287 381.8976,-137.8287"/>
</g>
</g>
</svg>
