<?xml version="1.0" encoding="UTF-8" standalone="no"?>
<!DOCTYPE svg PUBLIC "-//W3C//DTD SVG 1.1//EN"
 "http://www.w3.org/Graphics/SVG/1.1/DTD/svg11.dtd">
<!-- Generated by graphviz version 2.40.1 (20161225.0304)
 -->
<!-- Title: models_diagram Pages: 1 -->
<svg width="481pt" height="297pt"
 viewBox="0.00 0.00 481.08 297.00" xmlns="http://www.w3.org/2000/svg" xmlns:xlink="http://www.w3.org/1999/xlink">
<g id="graph0" class="graph" transform="scale(1 1) rotate(0) translate(4 293)">
<title>models_diagram</title>
<polygon fill="transparent" stroke="transparent" points="-4,4 -4,-293 477.0835,-293 477.0835,4 -4,4"/>
<!-- _diagram_info -->
<g id="node1" class="node">
<title>_diagram_info</title>
<text text-anchor="start" x="8" y="-274.6" font-family="Times,serif" font-size="13.00" fill="#000000">Models diagram</text>
<text text-anchor="start" x="8" y="-261.6" font-family="Times,serif" font-size="13.00" fill="#000000">Date: Mar 06 2018 &#45; 12:23</text>
<text text-anchor="start" x="8" y="-248.6" font-family="Times,serif" font-size="13.00" fill="#000000">Migration version: 20180306151012</text>
<text text-anchor="start" x="8" y="-235.6" font-family="Times,serif" font-size="13.00" fill="#000000">Generated by RailRoady 1.5.3</text>
<text text-anchor="start" x="8" y="-222.6" font-family="Times,serif" font-size="13.00" fill="#000000">http://railroady.prestonlee.com</text>
</g>
<!-- Product -->
<g id="node2" class="node">
<title>Product</title>
<ellipse fill="none" stroke="#000000" cx="262.6877" cy="-252.5" rx="37.7352" ry="18"/>
<text text-anchor="middle" x="262.6877" y="-248.3" font-family="Times,serif" font-size="14.00" fill="#000000">Product</text>
</g>
<!-- Order -->
<g id="node3" class="node">
<title>Order</title>
<ellipse fill="none" stroke="#000000" cx="272.6877" cy="-18" rx="30.9619" ry="18"/>
<text text-anchor="middle" x="272.6877" y="-13.8" font-family="Times,serif" font-size="14.00" fill="#000000">Order</text>
</g>
<!-- Product&#45;&gt;Order -->
<g id="edge1" class="edge">
<title>Product&#45;&gt;Order</title>
<path fill="none" stroke="#522b29" d="M258.6439,-226.3077C256.7224,-212.559 254.6406,-195.4106 253.6877,-180 250.7673,-132.7685 259.7557,-78.1699 266.3499,-45.9481"/>
<ellipse fill="none" stroke="#522b29" cx="259.2373" cy="-230.4238" rx="4" ry="4"/>
<polygon fill="#522b29" stroke="#522b29" points="266.4014,-45.7044 272.8761,-36.854 267.4376,-40.8129 268.4737,-35.9215 268.4737,-35.9215 268.4737,-35.9215 267.4376,-40.8129 264.0714,-34.9889 266.4014,-45.7044 266.4014,-45.7044"/>
</g>
<!-- User -->
<g id="node6" class="node">
<title>User</title>
<ellipse fill="none" stroke="#000000" cx="289.6877" cy="-162" rx="27" ry="18"/>
<text text-anchor="middle" x="289.6877" y="-157.8" font-family="Times,serif" font-size="14.00" fill="#000000">User</text>
</g>
<!-- Product&#45;&gt;User -->
<g id="edge2" class="edge">
<title>Product&#45;&gt;User</title>
<path fill="none" stroke="#321c8e" d="M270.8826,-225.032C274.2337,-213.7996 278.1034,-200.8288 281.4581,-189.5845"/>
<polygon fill="#321c8e" stroke="#321c8e" points="270.8811,-225.0375 263.7099,-233.3336 269.4516,-229.8288 268.0221,-234.6201 268.0221,-234.6201 268.0221,-234.6201 269.4516,-229.8288 272.3343,-235.9067 270.8811,-225.0375 270.8811,-225.0375"/>
<polygon fill="#321c8e" stroke="#321c8e" points="281.5055,-189.4254 288.6767,-181.1293 282.935,-184.6341 284.3645,-179.8427 284.3645,-179.8427 284.3645,-179.8427 282.935,-184.6341 280.0523,-178.5562 281.5055,-189.4254 281.5055,-189.4254"/>
</g>
<!-- Billing -->
<g id="node4" class="node">
<title>Billing</title>
<ellipse fill="none" stroke="#000000" cx="335.6877" cy="-90" rx="34.8545" ry="18"/>
<text text-anchor="middle" x="335.6877" y="-85.8" font-family="Times,serif" font-size="14.00" fill="#000000">Billing</text>
</g>
<!-- Billing&#45;&gt;Order -->
<g id="edge3" class="edge">
<title>Billing&#45;&gt;Order</title>
<path fill="none" stroke="#0d006b" d="M315.7484,-67.2122C308.6874,-59.1424 300.7265,-50.0443 293.5878,-41.8858"/>
<ellipse fill="none" stroke="#0d006b" cx="318.4419" cy="-70.2905" rx="4" ry="4"/>
<polygon fill="#0d006b" stroke="#0d006b" points="293.372,-41.6392 290.1736,-31.1501 290.0795,-37.8763 286.7869,-34.1134 286.7869,-34.1134 286.7869,-34.1134 290.0795,-37.8763 283.4003,-37.0767 293.372,-41.6392 293.372,-41.6392"/>
</g>
<!-- ApplicationRecord -->
<g id="node5" class="node">
<title>ApplicationRecord</title>
<ellipse fill="none" stroke="#000000" cx="395.6877" cy="-252.5" rx="77.2916" ry="18"/>
<text text-anchor="middle" x="395.6877" y="-248.3" font-family="Times,serif" font-size="14.00" fill="#000000">ApplicationRecord</text>
</g>
<!-- User&#45;&gt;Order -->
<g id="edge4" class="edge">
<title>User&#45;&gt;Order</title>
<path fill="none" stroke="#cb3202" d="M286.6239,-136.0476C283.6323,-110.7072 279.0929,-72.2557 276.0145,-46.1795"/>
<ellipse fill="none" stroke="#cb3202" cx="287.1" cy="-140.081" rx="4" ry="4"/>
<polygon fill="#cb3202" stroke="#cb3202" points="276.0056,-46.1037 279.3021,-35.6451 275.4194,-41.1382 274.8331,-36.1727 274.8331,-36.1727 274.8331,-36.1727 275.4194,-41.1382 270.3642,-36.7003 276.0056,-46.1037 276.0056,-46.1037"/>
</g>
<!-- User&#45;&gt;Billing -->
<g id="edge5" class="edge">
<title>User&#45;&gt;Billing</title>
<path fill="none" stroke="#aac164" d="M304.6962,-138.5086C309.2945,-131.3111 314.3795,-123.352 319.0781,-115.9977"/>
<ellipse fill="none" stroke="#aac164" cx="302.5103" cy="-141.93" rx="4" ry="4"/>
<polygon fill="#aac164" stroke="#aac164" points="319.3733,-115.5356 328.5494,-109.5314 322.0653,-111.3221 324.7572,-107.1086 324.7572,-107.1086 324.7572,-107.1086 322.0653,-111.3221 320.9651,-104.6859 319.3733,-115.5356 319.3733,-115.5356"/>
</g>
</g>
</svg>
