<?xml version="1.0" encoding="UTF-8" standalone="no"?>
<!DOCTYPE svg PUBLIC "-//W3C//DTD SVG 1.1//EN"
 "http://www.w3.org/Graphics/SVG/1.1/DTD/svg11.dtd">
<!-- Generated by graphviz version 2.40.1 (20161225.0304)
 -->
<!-- Title: models_diagram Pages: 1 -->
<svg width="481pt" height="225pt"
 viewBox="0.00 0.00 481.08 225.00" xmlns="http://www.w3.org/2000/svg" xmlns:xlink="http://www.w3.org/1999/xlink">
<g id="graph0" class="graph" transform="scale(1 1) rotate(0) translate(4 221)">
<title>models_diagram</title>
<polygon fill="transparent" stroke="transparent" points="-4,4 -4,-221 477.0835,-221 477.0835,4 -4,4"/>
<!-- _diagram_info -->
<g id="node1" class="node">
<title>_diagram_info</title>
<text text-anchor="start" x="8" y="-202.6" font-family="Times,serif" font-size="13.00" fill="#000000">Models diagram</text>
<text text-anchor="start" x="8" y="-189.6" font-family="Times,serif" font-size="13.00" fill="#000000">Date: Mar 02 2018 &#45; 16:10</text>
<text text-anchor="start" x="8" y="-176.6" font-family="Times,serif" font-size="13.00" fill="#000000">Migration version: 20180302174647</text>
<text text-anchor="start" x="8" y="-163.6" font-family="Times,serif" font-size="13.00" fill="#000000">Generated by RailRoady 1.5.3</text>
<text text-anchor="start" x="8" y="-150.6" font-family="Times,serif" font-size="13.00" fill="#000000">http://railroady.prestonlee.com</text>
</g>
<!-- Product -->
<g id="node2" class="node">
<title>Product</title>
<ellipse fill="none" stroke="#000000" cx="262.6877" cy="-180.5" rx="37.7352" ry="18"/>
<text text-anchor="middle" x="262.6877" y="-176.3" font-family="Times,serif" font-size="14.00" fill="#000000">Product</text>
</g>
<!-- Order -->
<g id="node3" class="node">
<title>Order</title>
<ellipse fill="none" stroke="#000000" cx="261.6877" cy="-18" rx="30.9619" ry="18"/>
<text text-anchor="middle" x="261.6877" y="-13.8" font-family="Times,serif" font-size="14.00" fill="#000000">Order</text>
</g>
<!-- Product&#45;&gt;Order -->
<g id="edge1" class="edge">
<title>Product&#45;&gt;Order</title>
<path fill="none" stroke="#f48ddb" d="M258.2133,-154.2874C255.0157,-132.3189 251.6158,-100.1239 253.6877,-72 254.3144,-63.4935 255.4893,-54.2939 256.7493,-45.9399"/>
<ellipse fill="none" stroke="#f48ddb" cx="258.8583" cy="-158.5078" rx="4" ry="4"/>
<polygon fill="#f48ddb" stroke="#f48ddb" points="256.7717,-45.8 262.7994,-36.6394 257.564,-40.8632 258.3562,-35.9264 258.3562,-35.9264 258.3562,-35.9264 257.564,-40.8632 253.9131,-35.2133 256.7717,-45.8 256.7717,-45.8"/>
</g>
<!-- User -->
<g id="node5" class="node">
<title>User</title>
<ellipse fill="none" stroke="#000000" cx="289.6877" cy="-90" rx="27" ry="18"/>
<text text-anchor="middle" x="289.6877" y="-85.8" font-family="Times,serif" font-size="14.00" fill="#000000">User</text>
</g>
<!-- Product&#45;&gt;User -->
<g id="edge2" class="edge">
<title>Product&#45;&gt;User</title>
<path fill="none" stroke="#7e4f1e" d="M270.8826,-153.032C274.2337,-141.7996 278.1034,-128.8288 281.4581,-117.5845"/>
<polygon fill="#7e4f1e" stroke="#7e4f1e" points="270.8811,-153.0375 263.7099,-161.3336 269.4516,-157.8288 268.0221,-162.6201 268.0221,-162.6201 268.0221,-162.6201 269.4516,-157.8288 272.3343,-163.9067 270.8811,-153.0375 270.8811,-153.0375"/>
<polygon fill="#7e4f1e" stroke="#7e4f1e" points="281.5055,-117.4254 288.6767,-109.1293 282.935,-112.6341 284.3645,-107.8427 284.3645,-107.8427 284.3645,-107.8427 282.935,-112.6341 280.0523,-106.5562 281.5055,-117.4254 281.5055,-117.4254"/>
</g>
<!-- ApplicationRecord -->
<g id="node4" class="node">
<title>ApplicationRecord</title>
<ellipse fill="none" stroke="#000000" cx="395.6877" cy="-180.5" rx="77.2916" ry="18"/>
<text text-anchor="middle" x="395.6877" y="-176.3" font-family="Times,serif" font-size="14.00" fill="#000000">ApplicationRecord</text>
</g>
<!-- User&#45;&gt;Order -->
<g id="edge3" class="edge">
<title>User&#45;&gt;Order</title>
<path fill="none" stroke="#2ae65d" d="M279.9068,-64.8489C277.4591,-58.5549 274.8216,-51.7729 272.3343,-45.3767"/>
<ellipse fill="none" stroke="#2ae65d" cx="281.4599" cy="-68.8428" rx="4" ry="4"/>
<polygon fill="#2ae65d" stroke="#2ae65d" points="272.2224,-45.0889 272.7919,-34.1378 270.4101,-40.4289 268.5979,-35.7689 268.5979,-35.7689 268.5979,-35.7689 270.4101,-40.4289 264.4038,-37.3999 272.2224,-45.0889 272.2224,-45.0889"/>
</g>
</g>
</svg>
