<?xml version="1.0" encoding="UTF-8" standalone="no"?>
<!DOCTYPE svg PUBLIC "-//W3C//DTD SVG 1.1//EN"
 "http://www.w3.org/Graphics/SVG/1.1/DTD/svg11.dtd">
<!-- Generated by graphviz version 2.40.1 (20161225.0304)
 -->
<!-- Title: models_diagram Pages: 1 -->
<svg width="654pt" height="744pt"
 viewBox="0.00 0.00 654.08 744.00" xmlns="http://www.w3.org/2000/svg" xmlns:xlink="http://www.w3.org/1999/xlink">
<g id="graph0" class="graph" transform="scale(1 1) rotate(0) translate(4 740)">
<title>models_diagram</title>
<polygon fill="transparent" stroke="transparent" points="-4,4 -4,-740 650.0835,-740 650.0835,4 -4,4"/>
<!-- _diagram_info -->
<g id="node1" class="node">
<title>_diagram_info</title>
<text text-anchor="start" x="8" y="-700.6" font-family="Times,serif" font-size="13.00" fill="#000000">Models diagram</text>
<text text-anchor="start" x="8" y="-687.6" font-family="Times,serif" font-size="13.00" fill="#000000">Date: Mar 06 2018 &#45; 12:23</text>
<text text-anchor="start" x="8" y="-674.6" font-family="Times,serif" font-size="13.00" fill="#000000">Migration version: 20180306151012</text>
<text text-anchor="start" x="8" y="-661.6" font-family="Times,serif" font-size="13.00" fill="#000000">Generated by RailRoady 1.5.3</text>
<text text-anchor="start" x="8" y="-648.6" font-family="Times,serif" font-size="13.00" fill="#000000">http://railroady.prestonlee.com</text>
</g>
<!-- Product -->
<g id="node2" class="node">
<title>Product</title>
<path fill="none" stroke="#000000" d="M237.8254,-621.5C237.8254,-621.5 461.55,-621.5 461.55,-621.5 467.55,-621.5 473.55,-627.5 473.55,-633.5 473.55,-633.5 473.55,-723.5 473.55,-723.5 473.55,-729.5 467.55,-735.5 461.55,-735.5 461.55,-735.5 237.8254,-735.5 237.8254,-735.5 231.8254,-735.5 225.8254,-729.5 225.8254,-723.5 225.8254,-723.5 225.8254,-633.5 225.8254,-633.5 225.8254,-627.5 231.8254,-621.5 237.8254,-621.5"/>
<text text-anchor="middle" x="349.6877" y="-720.3" font-family="Times,serif" font-size="14.00" fill="#000000">Product</text>
<polyline fill="none" stroke="#000000" points="225.8254,-713.5 473.55,-713.5 "/>
<text text-anchor="start" x="233.8254" y="-698.3" font-family="Times,serif" font-size="14.00" fill="#000000">id :bigint</text>
<text text-anchor="start" x="233.8254" y="-684.3" font-family="Times,serif" font-size="14.00" fill="#000000">name :character varying</text>
<text text-anchor="start" x="233.8254" y="-670.3" font-family="Times,serif" font-size="14.00" fill="#000000">photo :character varying</text>
<text text-anchor="start" x="233.8254" y="-656.3" font-family="Times,serif" font-size="14.00" fill="#000000">price :integer</text>
<text text-anchor="start" x="233.8254" y="-642.3" font-family="Times,serif" font-size="14.00" fill="#000000">created_at :timestamp without time zone</text>
<text text-anchor="start" x="233.8254" y="-628.3" font-family="Times,serif" font-size="14.00" fill="#000000">updated_at :timestamp without time zone</text>
</g>
<!-- Order -->
<g id="node3" class="node">
<title>Order</title>
<path fill="none" stroke="#000000" d="M181.8254,-.5C181.8254,-.5 405.55,-.5 405.55,-.5 411.55,-.5 417.55,-6.5 417.55,-12.5 417.55,-12.5 417.55,-130.5 417.55,-130.5 417.55,-136.5 411.55,-142.5 405.55,-142.5 405.55,-142.5 181.8254,-142.5 181.8254,-142.5 175.8254,-142.5 169.8254,-136.5 169.8254,-130.5 169.8254,-130.5 169.8254,-12.5 169.8254,-12.5 169.8254,-6.5 175.8254,-.5 181.8254,-.5"/>
<text text-anchor="middle" x="293.6877" y="-127.3" font-family="Times,serif" font-size="14.00" fill="#000000">Order</text>
<polyline fill="none" stroke="#000000" points="169.8254,-120.5 417.55,-120.5 "/>
<text text-anchor="start" x="177.8254" y="-105.3" font-family="Times,serif" font-size="14.00" fill="#000000">billing_id :bigint</text>
<text text-anchor="start" x="177.8254" y="-91.3" font-family="Times,serif" font-size="14.00" fill="#000000">payed :boolean</text>
<text text-anchor="start" x="177.8254" y="-77.3" font-family="Times,serif" font-size="14.00" fill="#000000">user_id :bigint</text>
<text text-anchor="start" x="177.8254" y="-63.3" font-family="Times,serif" font-size="14.00" fill="#000000">product_id :bigint</text>
<text text-anchor="start" x="177.8254" y="-49.3" font-family="Times,serif" font-size="14.00" fill="#000000">created_at :timestamp without time zone</text>
<text text-anchor="start" x="177.8254" y="-35.3" font-family="Times,serif" font-size="14.00" fill="#000000">updated_at :timestamp without time zone</text>
<text text-anchor="start" x="177.8254" y="-21.3" font-family="Times,serif" font-size="14.00" fill="#000000">quantity :integer</text>
<text text-anchor="start" x="177.8254" y="-7.3" font-family="Times,serif" font-size="14.00" fill="#000000">id :bigint</text>
</g>
<!-- Product&#45;&gt;Order -->
<g id="edge1" class="edge">
<title>Product&#45;&gt;Order</title>
<path fill="none" stroke="#f11fad" d="M289.6566,-614.6178C283.5627,-605.2441 278.2973,-595.2685 274.6877,-585 223.5304,-439.4653 250.1533,-256.2474 272.8205,-152.6574"/>
<ellipse fill="none" stroke="#f11fad" cx="291.9773" cy="-618.0262" rx="4" ry="4"/>
<polygon fill="#f11fad" stroke="#f11fad" points="272.823,-152.6455 279.3912,-143.8642 273.911,-147.7652 274.999,-142.885 274.999,-142.885 274.999,-142.885 273.911,-147.7652 270.6068,-141.9059 272.823,-152.6455 272.823,-152.6455"/>
</g>
<!-- User -->
<g id="node6" class="node">
<title>User</title>
<path fill="none" stroke="#000000" d="M296.053,-358.5C296.053,-358.5 591.3225,-358.5 591.3225,-358.5 597.3225,-358.5 603.3225,-364.5 603.3225,-370.5 603.3225,-370.5 603.3225,-572.5 603.3225,-572.5 603.3225,-578.5 597.3225,-584.5 591.3225,-584.5 591.3225,-584.5 296.053,-584.5 296.053,-584.5 290.053,-584.5 284.053,-578.5 284.053,-572.5 284.053,-572.5 284.053,-370.5 284.053,-370.5 284.053,-364.5 290.053,-358.5 296.053,-358.5"/>
<text text-anchor="middle" x="443.6877" y="-569.3" font-family="Times,serif" font-size="14.00" fill="#000000">User</text>
<polyline fill="none" stroke="#000000" points="284.053,-562.5 603.3225,-562.5 "/>
<text text-anchor="start" x="292.053" y="-547.3" font-family="Times,serif" font-size="14.00" fill="#000000">updated_at :timestamp without time zone</text>
<text text-anchor="start" x="292.053" y="-533.3" font-family="Times,serif" font-size="14.00" fill="#000000">email :character varying</text>
<text text-anchor="start" x="292.053" y="-519.3" font-family="Times,serif" font-size="14.00" fill="#000000">encrypted_password :character varying</text>
<text text-anchor="start" x="292.053" y="-505.3" font-family="Times,serif" font-size="14.00" fill="#000000">reset_password_token :character varying</text>
<text text-anchor="start" x="292.053" y="-491.3" font-family="Times,serif" font-size="14.00" fill="#000000">reset_password_sent_at :timestamp without time zone</text>
<text text-anchor="start" x="292.053" y="-477.3" font-family="Times,serif" font-size="14.00" fill="#000000">remember_created_at :timestamp without time zone</text>
<text text-anchor="start" x="292.053" y="-463.3" font-family="Times,serif" font-size="14.00" fill="#000000">sign_in_count :integer</text>
<text text-anchor="start" x="292.053" y="-449.3" font-family="Times,serif" font-size="14.00" fill="#000000">current_sign_in_at :timestamp without time zone</text>
<text text-anchor="start" x="292.053" y="-435.3" font-family="Times,serif" font-size="14.00" fill="#000000">last_sign_in_at :timestamp without time zone</text>
<text text-anchor="start" x="292.053" y="-421.3" font-family="Times,serif" font-size="14.00" fill="#000000">current_sign_in_ip :inet</text>
<text text-anchor="start" x="292.053" y="-407.3" font-family="Times,serif" font-size="14.00" fill="#000000">last_sign_in_ip :inet</text>
<text text-anchor="start" x="292.053" y="-393.3" font-family="Times,serif" font-size="14.00" fill="#000000">name :character varying</text>
<text text-anchor="start" x="292.053" y="-379.3" font-family="Times,serif" font-size="14.00" fill="#000000">created_at :timestamp without time zone</text>
<text text-anchor="start" x="292.053" y="-365.3" font-family="Times,serif" font-size="14.00" fill="#000000">id :bigint</text>
</g>
<!-- Product&#45;&gt;User -->
<g id="edge2" class="edge">
<title>Product&#45;&gt;User</title>
<path fill="none" stroke="#afe396" d="M379.8656,-612.0445C382.4798,-606.2878 385.1739,-600.3549 387.9092,-594.3314"/>
<polygon fill="#afe396" stroke="#afe396" points="379.7573,-612.2832 371.5252,-619.5277 377.6899,-616.8358 375.6225,-621.3884 375.6225,-621.3884 375.6225,-621.3884 377.6899,-616.8358 379.7198,-623.249 379.7573,-612.2832 379.7573,-612.2832"/>
<polygon fill="#afe396" stroke="#afe396" points="388.101,-593.9089 396.3331,-586.6644 390.1684,-589.3563 392.2358,-584.8037 392.2358,-584.8037 392.2358,-584.8037 390.1684,-589.3563 388.1385,-582.9431 388.101,-593.9089 388.101,-593.9089"/>
</g>
<!-- Billing -->
<g id="node4" class="node">
<title>Billing</title>
<path fill="none" stroke="#000000" d="M333.8254,-179.5C333.8254,-179.5 557.55,-179.5 557.55,-179.5 563.55,-179.5 569.55,-185.5 569.55,-191.5 569.55,-191.5 569.55,-309.5 569.55,-309.5 569.55,-315.5 563.55,-321.5 557.55,-321.5 557.55,-321.5 333.8254,-321.5 333.8254,-321.5 327.8254,-321.5 321.8254,-315.5 321.8254,-309.5 321.8254,-309.5 321.8254,-191.5 321.8254,-191.5 321.8254,-185.5 327.8254,-179.5 333.8254,-179.5"/>
<text text-anchor="middle" x="445.6877" y="-306.3" font-family="Times,serif" font-size="14.00" fill="#000000">Billing</text>
<polyline fill="none" stroke="#000000" points="321.8254,-299.5 569.55,-299.5 "/>
<text text-anchor="start" x="329.8254" y="-284.3" font-family="Times,serif" font-size="14.00" fill="#000000">updated_at :timestamp without time zone</text>
<text text-anchor="start" x="329.8254" y="-270.3" font-family="Times,serif" font-size="14.00" fill="#000000">code :character varying</text>
<text text-anchor="start" x="329.8254" y="-256.3" font-family="Times,serif" font-size="14.00" fill="#000000">payment_method :character varying</text>
<text text-anchor="start" x="329.8254" y="-242.3" font-family="Times,serif" font-size="14.00" fill="#000000">amount :numeric(5,2)</text>
<text text-anchor="start" x="329.8254" y="-228.3" font-family="Times,serif" font-size="14.00" fill="#000000">currency :character varying</text>
<text text-anchor="start" x="329.8254" y="-214.3" font-family="Times,serif" font-size="14.00" fill="#000000">user_id :bigint</text>
<text text-anchor="start" x="329.8254" y="-200.3" font-family="Times,serif" font-size="14.00" fill="#000000">created_at :timestamp without time zone</text>
<text text-anchor="start" x="329.8254" y="-186.3" font-family="Times,serif" font-size="14.00" fill="#000000">id :bigint</text>
</g>
<!-- Billing&#45;&gt;Order -->
<g id="edge3" class="edge">
<title>Billing&#45;&gt;Order</title>
<path fill="none" stroke="#7f89d2" d="M380.064,-173.2194C373.7441,-165.7769 367.3266,-158.2194 360.9907,-150.7581"/>
<ellipse fill="none" stroke="#7f89d2" cx="382.8059" cy="-176.4483" rx="4" ry="4"/>
<polygon fill="#7f89d2" stroke="#7f89d2" points="360.6291,-150.3322 357.5864,-139.7969 357.3926,-146.5209 354.1562,-142.7096 354.1562,-142.7096 354.1562,-142.7096 357.3926,-146.5209 350.7261,-145.6224 360.6291,-150.3322 360.6291,-150.3322"/>
</g>
<!-- ApplicationRecord -->
<g id="node5" class="node">
<title>ApplicationRecord</title>
<ellipse fill="none" stroke="#000000" cx="568.6877" cy="-678.5" rx="77.2916" ry="18"/>
<text text-anchor="middle" x="568.6877" y="-674.3" font-family="Times,serif" font-size="14.00" fill="#000000">ApplicationRecord</text>
</g>
<!-- User&#45;&gt;Order -->
<g id="edge4" class="edge">
<title>User&#45;&gt;Order</title>
<path fill="none" stroke="#4e6681" d="M327.7966,-351.2504C322.0156,-341.7688 316.8814,-331.9851 312.6877,-322 290.291,-268.6735 285.9997,-203.3746 287.0659,-152.8174"/>
<ellipse fill="none" stroke="#4e6681" cx="329.9824" cy="-354.7163" rx="4" ry="4"/>
<polygon fill="#4e6681" stroke="#4e6681" points="287.0725,-152.5827 291.8565,-142.7154 287.2154,-147.5847 287.3584,-142.5868 287.3584,-142.5868 287.3584,-142.5868 287.2154,-147.5847 282.8602,-142.4581 287.0725,-152.5827 287.0725,-152.5827"/>
</g>
<!-- User&#45;&gt;Billing -->
<g id="edge5" class="edge">
<title>User&#45;&gt;Billing</title>
<path fill="none" stroke="#070c03" d="M444.7855,-350.1998C444.842,-343.9532 444.8981,-337.753 444.9531,-331.6802"/>
<ellipse fill="none" stroke="#070c03" cx="444.7474" cy="-354.4105" rx="4" ry="4"/>
<polygon fill="#070c03" stroke="#070c03" points="444.9538,-331.5943 449.5442,-321.6354 444.9991,-326.5945 445.0444,-321.5947 445.0444,-321.5947 445.0444,-321.5947 444.9991,-326.5945 440.5445,-321.5539 444.9538,-331.5943 444.9538,-331.5943"/>
</g>
</g>
</svg>
